<svg viewBox="0 0 900 650" xmlns="http://www.w3.org/2000/svg">
  <!-- 背景和标题 -->
  <rect width="900" height="650" fill="#f8f9fa" rx="10" ry="10"/>
  <text x="450" y="40" font-family="Arial, sans-serif" font-size="24" font-weight="bold" text-anchor="middle" fill="#333">Presidio中文PII识别系统整体技术架构</text>
  
  <rect x="250" y="120" width="150" height="50" rx="8" ry="8" fill="#e2f3f5" stroke="#0c5460" stroke-width="1"/>
  <text x="325" y="150" font-family="Arial, sans-serif" font-size="14" text-anchor="middle" fill="#0c5460">纯文本</text>
  
  <rect x="500" y="120" width="150" height="50" rx="8" ry="8" fill="#e2f3f5" stroke="#0c5460" stroke-width="1"/>
  <text x="575" y="150" font-family="Arial, sans-serif" font-size="14" text-anchor="middle" fill="#0c5460">图片文件</text>
  
  <!-- OCR模块 -->
  <rect x="500" y="200" width="150" height="60" rx="8" ry="8" fill="#fff3cd" stroke="#856404" stroke-width="2"/>
  <text x="575" y="225" font-family="Arial, sans-serif" font-size="14" font-weight="bold" text-anchor="middle" fill="#856404">OCR模块</text>
  <text x="575" y="245" font-family="Arial, sans-serif" font-size="10" text-anchor="middle" fill="#856404">提取图像中的文字</text>
  
  <!-- 箭头：从输入到下一层 -->
  <line x1="320" y1="170" x2="320" y2="300" stroke="#555" stroke-width="2" marker-end="url(#arrowhead)"/>
  <line x1="575" y1="170" x2="575" y2="200" stroke="#555" stroke-width="2" marker-end="url(#arrowhead)"/>
  <line x1="575" y1="260" x2="575" y2="300" stroke="#555" stroke-width="2" marker-end="url(#arrowhead)"/>
  
  <!-- Analyzer部分（中上方） -->
  <rect x="250" y="300" width="400" height="100" rx="8" ry="8" fill="#d4edda" stroke="#155724" stroke-width="2"/>
  <text x="450" y="330" font-family="Arial, sans-serif" font-size="18" font-weight="bold" text-anchor="middle" fill="#155724">Presidio Analyzer</text>
  <text x="450" y="360" font-family="Arial, sans-serif" font-size="14" text-anchor="middle" fill="#155724">协调不同的Recognizer(识别器)</text>
  <text x="450" y="380" font-family="Arial, sans-serif" font-size="14" text-anchor="middle" fill="#155724">识别文本中的PII信息</text>
  
  <!-- 各种识别器 -->
  <rect x="50" y="310" width="130" height="80" rx="8" ry="8" fill="#e2e3e5" stroke="#383d41" stroke-width="2"/>
  <text x="115" y="340" font-family="Arial, sans-serif" font-size="12" font-weight="bold" text-anchor="middle" fill="#383d41">中文模式识别器</text>
  <text x="115" y="360" font-family="Arial, sans-serif" font-size="10" text-anchor="middle" fill="#383d41">正则表达式</text>
  <text x="115" y="375" font-family="Arial, sans-serif" font-size="10" text-anchor="middle" fill="#383d41">处理固定格式PII</text>
  
  <rect x="720" y="310" width="130" height="80" rx="8" ry="8" fill="#e2e3e5" stroke="#383d41" stroke-width="2"/>
  <text x="785" y="340" font-family="Arial, sans-serif" font-size="12" font-weight="bold" text-anchor="middle" fill="#383d41">外部LLM识别器</text>
  <text x="785" y="360" font-family="Arial, sans-serif" font-size="10" text-anchor="middle" fill="#383d41">OpenAI/Anthropic</text>
  <text x="785" y="375" font-family="Arial, sans-serif" font-size="10" text-anchor="middle" fill="#383d41">云端API集成</text>
  
  <rect x="720" y="210" width="130" height="80" rx="8" ry="8" fill="#e2e3e5" stroke="#383d41" stroke-width="2"/>
  <text x="785" y="240" font-family="Arial, sans-serif" font-size="12" font-weight="bold" text-anchor="middle" fill="#383d41">本地LLM识别器</text>
  <text x="785" y="260" font-family="Arial, sans-serif" font-size="10" text-anchor="middle" fill="#383d41">HuggingFace</text>
  <text x="785" y="275" font-family="Arial, sans-serif" font-size="10" text-anchor="middle" fill="#383d41">本地部署模型</text>
  
  <!-- 连接线：从识别器到Analyzer -->
  <line x1="180" y1="350" x2="250" y2="350" stroke="#555" stroke-width="2" marker-end="url(#arrowhead)"/>
  <line x1="720" y1="350" x2="650" y2="350" stroke="#555" stroke-width="2" marker-end="url(#arrowhead)"/>
  <line x1="785" y1="290" x2="785" y2="310" stroke="#555" stroke-width="2"/>
  
  <!-- Anonymizer部分（中下方） -->
  <rect x="250" y="450" width="400" height="100" rx="8" ry="8" fill="#cce5ff" stroke="#004085" stroke-width="2"/>
  <text x="450" y="480" font-family="Arial, sans-serif" font-size="18" font-weight="bold" text-anchor="middle" fill="#004085">Presidio Anonymizer</text>
  <text x="450" y="505" font-family="Arial, sans-serif" font-size="14" text-anchor="middle" fill="#004085">对检测到的PII信息进行匿名化处理</text>
  
  <!-- 匿名化策略 -->
  <rect x="50" y="460" width="130" height="80" rx="8" ry="8" fill="#fff4e6" stroke="#ff8c00" stroke-width="2"/>
  <text x="115" y="490" font-family="Arial, sans-serif" font-size="12" font-weight="bold" text-anchor="middle" fill="#ff8c00">Replace</text>
  <text x="115" y="510" font-family="Arial, sans-serif" font-size="10" text-anchor="middle" fill="#ff8c00">用假数据替换</text>
  <text x="115" y="525" font-family="Arial, sans-serif" font-size="10" text-anchor="middle" fill="#ff8c00">保持格式一致</text>

  <!-- 连接线：从Analyzer到Anonymizer -->
  <line x1="450" y1="400" x2="450" y2="450" stroke="#555" stroke-width="2" marker-end="url(#arrowhead)"/>
  
  <!-- 配置管理 -->
  <rect x="50" y="120" width="130" height="80" rx="8" ry="8" fill="#cce5ff" stroke="#004085" stroke-width="2"/>
  <text x="115" y="150" font-family="Arial, sans-serif" font-size="14" font-weight="bold" text-anchor="middle" fill="#004085">配置管理</text>
  <text x="115" y="170" font-family="Arial, sans-serif" font-size="10" text-anchor="middle" fill="#004085">YAML文件</text>
  <text x="115" y="185" font-family="Arial, sans-serif" font-size="10" text-anchor="middle" fill="#004085">参数控制</text>
  
  <!-- 连接线：从匿名化策略到配置管理 -->
  <line x1="180" y1="500" x2="250" y2="500" stroke="#555" stroke-width="2" marker-end="url(#arrowhead)"/>
  
  <!-- 输出部分（在底部） -->
  <rect x="300" y="580" width="300" height="60" rx="8" ry="8" fill="#d1ecf1" stroke="#0c5460" stroke-width="2"/>
  <text x="450" y="615" font-family="Arial, sans-serif" font-size="18" font-weight="bold" text-anchor="middle" fill="#0c5460">输出</text>
  
  <rect x="310" y="585" width="120" height="50" rx="8" ry="8" fill="#e2f3f5" stroke="#0c5460" stroke-width="1" opacity="0.7"/>
  <text x="375" y="615" font-family="Arial, sans-serif" font-size="14" text-anchor="middle" fill="#0c5460">匿名化文本</text>
  
  <rect x="470" y="585" width="120" height="50" rx="8" ry="8" fill="#e2f3f5" stroke="#0c5460" stroke-width="1" opacity="0.7"/>
  <text x="530" y="615" font-family="Arial, sans-serif" font-size="14" text-anchor="middle" fill="#0c5460">匿名化图像</text>
  
  <!-- 连接线：从Anonymizer到输出 -->
  <line x1="370" y1="550" x2="370" y2="580" stroke="#555" stroke-width="2" marker-end="url(#arrowhead)"/>
  <line x1="520" y1="550" x2="520" y2="580" stroke="#555" stroke-width="2" marker-end="url(#arrowhead)"/>
  
  <!-- 箭头定义 -->
  <defs>
    <marker id="arrowhead" markerWidth="10" markerHeight="7" refX="9" refY="3.5" orient="auto">
      <polygon points="0 0, 10 3.5, 0 7" fill="#555"/>
    </marker>
  </defs>
</svg>